<svg width="128" height="64" viewBox="0 0 128 64" fill="none" xmlns="http://www.w3.org/2000/svg">
<rect width="128" height="64" fill="white"/>
<g clip-path="url(#clip0_6115_325)">
<path d="M107 7L104 10H110V21H113V7H107Z" fill="#00B500"/>
<path d="M24 27.9997V14.8208H33.0117C33.1028 15.0976 33.2199 15.3982 33.2199 16.0388C33.2199 16.4816 33.121 16.9048 33.0117 17.2185H26.9155V19.9372H32.0156C32.1067 20.2509 32.1978 20.583 32.1978 21.0258C32.1978 21.4871 32.125 21.9957 32.0156 22.3278H26.9155V25.6277H29.8646H32.8203C32.9296 25.9229 33.0025 26.5561 33.0025 26.962C33.0025 27.368 32.9479 27.6675 32.8203 27.9997H24Z" fill="black"/>
<path fill-rule="evenodd" clip-rule="evenodd" d="M44.7374 14.8208V25.8549H46.0312V30.546C45.6486 30.6567 45.2476 30.7305 44.7374 30.7305C44.2272 30.7305 43.7716 30.6752 43.3708 30.546V27.9997H36.6291V30.546C36.2283 30.6567 35.5358 30.7121 35.0256 30.7121C34.5154 30.7121 34.3514 30.6567 33.9688 30.546V25.8549H35.4297C35.9714 23.4103 36.1117 17.9175 36.5188 15.2136C36.5533 14.9844 36.7521 14.8208 36.9839 14.8208H44.7374ZM41.9688 17.0719H38.8225C38.6066 20.5877 38.4867 22.4782 38.3069 25.8549H41.9688V17.0719Z" fill="black"/>
<path d="M55.5671 14.9869L52.8128 20.2456C51.9928 22.0723 51.0606 23.5669 50.7691 24.6371H50.678C50.678 24.6371 50.9513 22.4598 50.9513 19.2861V14.9869C50.949 14.9869 50.9384 14.9843 50.9197 14.9799C50.7878 14.9483 50.2553 14.8208 49.4571 14.8208C48.5642 14.8208 48.0176 14.9869 48.0176 14.9869V27.94C48.0176 27.94 48.4913 28.106 49.7486 28.106C50.7682 28.106 51.3422 27.975 51.4706 27.9457L51.4912 27.9411C51.4948 27.9404 51.4979 27.94 51.4979 27.94L54.1467 22.7919C55.5815 19.8513 56.2231 18.4558 56.2231 18.4558H56.3142C56.3142 18.4558 56.0408 20.4117 56.0408 23.6223V27.94C56.0408 27.94 56.5146 28.106 57.4986 28.106C58.3915 28.106 58.9381 27.94 58.9381 27.94V14.9869C58.9381 14.9869 58.3915 14.8208 57.2435 14.8208C56.1137 14.8208 55.5671 14.9869 55.5671 14.9869Z" fill="black"/>
<path d="M64.978 20.098H70.0845V14.9869C70.0845 14.9869 70.6494 14.8208 71.5423 14.8208C72.4351 14.8208 73 14.9869 73 14.9869V27.94C73 27.94 72.4533 28.106 71.5605 28.106C70.5765 28.106 70.0845 27.94 70.0845 27.94V22.4967H64.978V27.94C64.978 27.94 64.3949 28.106 63.5202 28.106C62.5545 28.106 62.0625 27.94 62.0625 27.94V14.9869C62.0625 14.9869 62.6092 14.8208 63.502 14.8208C64.4131 14.8208 64.978 14.9869 64.978 14.9869V20.098Z" fill="black"/>
<path fill-rule="evenodd" clip-rule="evenodd" d="M76.0078 14.9043V28.0235H81.3286C83.9707 28.0235 85.6107 26.4735 85.6107 23.8903C85.6107 20.9376 83.8281 19.7981 81.0625 19.9532H78.9233V14.9043C78.9233 14.9043 78.3949 14.7383 77.4656 14.7383C76.4816 14.7383 76.0078 14.9043 76.0078 14.9043ZM78.9233 22.2657H80.9095C81.9846 22.2657 82.9219 22.5157 82.9219 23.8903C82.9219 25.2649 81.9846 25.717 80.9095 25.717H78.9233V22.2657Z" fill="black"/>
<path d="M86.9902 14.9869V27.94C86.9902 27.94 87.4821 28.106 88.4479 28.106C89.3225 28.106 89.9056 27.94 89.9056 27.94V14.9869C89.9056 14.9869 89.359 14.8208 88.4479 14.8208C87.555 14.8208 86.9902 14.9869 86.9902 14.9869Z" fill="black"/>
<path d="M97.7639 20.337L100.672 14.9799C100.672 14.9799 101.051 14.8208 102.18 14.8208C103.328 14.8208 103.875 14.9869 103.875 14.9869V27.94C103.875 27.94 103.328 28.1061 102.435 28.1061C101.451 28.1061 100.978 27.94 100.978 27.94V23.6223C100.978 20.4117 101.251 18.4558 101.251 18.4558H101.16C101.16 18.4558 100.518 19.8513 99.0835 22.792L96.449 27.94C96.447 27.94 96.4379 27.9421 96.4217 27.9458C96.2932 27.9751 95.7192 28.1061 94.6997 28.1061C93.4424 28.1061 92.9688 27.94 92.9688 27.94V14.9869C92.9688 14.9869 93.5153 14.8209 94.4082 14.8209C95.2064 14.8209 95.7389 14.9483 95.8708 14.9799C95.8894 14.9844 95.9001 14.9869 95.9024 14.9869V19.2862C95.9024 22.4599 95.629 24.6372 95.629 24.6372H95.7201C96.0117 23.567 96.9439 22.1637 97.7639 20.337Z" fill="black"/>
<path d="M101 12.0288C101 11.4294 100.817 11.0576 100.817 11.0576H96.2185C96.2185 11.0576 96.0352 11.5677 96.0352 12.0288C96.0352 12.4894 96.2185 12.9999 96.2185 12.9999H100.817C100.817 12.9999 101 12.6281 101 12.0288Z" fill="black"/>
</g>
<path d="M15 43V57H21L24 54H18V43H15Z" fill="#BDCFD1"/>
<path fill-rule="evenodd" clip-rule="evenodd" d="M32.52 37.0486C33.433 37.0486 34.104 37.2147 33.993 37.2147V48.0486H35.427V52.902C35.035 53.012 34.57 53.0859 34.104 53.0859C33.619 53.0859 33.135 53.0305 32.706 52.902V50.3497H24V37.2147C24 37.2147 24.5034 37.0486 25.4908 37.0486C26.385 37.0486 26.982 37.2147 26.982 37.2147V48.0486H30.951V37.2147C30.951 37.2147 31.514 37.0486 32.52 37.0486ZM81.369 37C83.606 37 84.798 37.7082 84.798 37.7082C84.835 38.5244 84.482 39.1962 83.941 39.7045L83.905 39.6921C83.715 39.6282 82.804 39.341 81.761 39.341C79.86 39.341 78.649 40.3032 78.649 43.7686C78.649 47.2332 79.86 48.1416 81.761 48.1416C83.028 48.1416 84.108 47.7416 84.108 47.7416C84.667 48.2318 84.984 49.0124 84.984 49.7918C84.984 49.7918 83.754 50.5 81.369 50.5C77.567 50.5 75.5 48.1416 75.5 43.7496C75.5 39.3588 77.567 37 81.369 37ZM58.933 37.0901V50.2608C58.933 50.2608 58.429 50.427 57.461 50.427C56.379 50.427 55.952 50.2608 55.952 50.2608V39.332H51.982V50.2608L51.953 50.2689C51.83 50.3022 51.314 50.427 50.491 50.427C49.429 50.427 49 50.2608 49 50.2608V37.0901H58.933ZM71.258 37.031C72.432 37.031 72.991 37.1972 72.991 37.1972V50.2606C72.991 50.2606 72.432 50.4268 71.519 50.4268C70.513 50.4268 70.028 50.2606 70.028 50.2606V45.8706C70.028 42.6676 70.308 40.716 70.308 40.716H70.215L70.203 40.7363C70.093 40.9258 69.226 42.4369 67.974 45.1514L65.559 50.2606C65.541 50.2606 64.945 50.4268 63.77 50.4268C62.485 50.4268 62 50.2606 62 50.2606V37.1972C62 37.1972 62.559 37.031 63.472 37.031C64.404 37.031 64.982 37.1972 65 37.1972V41.5445C65 44.711 64.72 46.883 64.72 46.883H64.814C65.112 45.816 66.059 44.121 66.898 42.2986L69.544 37.1972C69.544 37.1972 70.102 37.031 71.258 37.031ZM45.927 37.0367C46.728 37.0367 47.38 37.2032 47.38 37.2032L43.859 46.7971C42.778 49.6875 41.064 50.4136 39.424 50.4136C38.548 50.4136 37.896 50.1925 37.896 50.1925C37.896 50.1925 37.691 49.7328 37.691 49.0878C37.691 48.4621 37.821 47.9655 37.821 47.9655C37.821 47.9655 38.399 48.039 38.921 48.039C39.667 48.039 40.337 47.6809 40.952 46.3925H40.281L36.032 37.2032C36.032 37.2032 36.629 37.0367 37.635 37.0367C38.734 37.0367 39.238 37.2032 39.238 37.2032L41.325 41.8082C41.828 42.9498 42.052 43.8151 42.052 43.8151H42.126C42.126 43.8151 42.33 42.9498 42.778 41.7721L44.474 37.2032C44.474 37.2032 45.033 37.0367 45.927 37.0367Z" fill="black"/>
<defs>
<clipPath id="clip0_6115_325">
<rect width="89" height="24" fill="white" transform="translate(24 7)"/>
</clipPath>
</defs>
</svg>
