<svg width="128" height="64" viewBox="0 0 128 64" fill="none" xmlns="http://www.w3.org/2000/svg">
<rect width="128" height="64" fill="white"/>
<g clip-path="url(#clip0_6115_323)">
<mask id="mask0_6115_323" style="mask-type:luminance" maskUnits="userSpaceOnUse" x="40" y="8" width="48" height="48">
<path d="M88 8H40V56H88V8Z" fill="white"/>
</mask>
<g mask="url(#mask0_6115_323)">
<path d="M40 26.576C40 19.3002 40 15.6623 41.6813 13.0131C42.5331 11.6708 43.6708 10.5331 45.0131 9.68126C47.6623 8 51.3002 8 58.576 8H69.424C76.6998 8 80.3377 8 82.9869 9.68126C84.3292 10.5331 85.4669 11.6708 86.3187 13.0131C88 15.6623 88 19.3002 88 26.576V37.424C88 44.6998 88 48.3377 86.3187 50.9869C85.4669 52.3292 84.3292 53.4669 82.9869 54.3187C80.3377 56 76.6998 56 69.424 56H58.576C51.3002 56 47.6623 56 45.0131 54.3187C43.6708 53.4669 42.5331 52.3292 41.6813 50.9869C40 48.3377 40 44.6998 40 37.424V26.576Z" fill="#FF8F00"/>
<path d="M88 32V26.576C88 19.3002 88 15.6623 86.3187 13.0131C85.4669 11.6708 84.3292 10.5331 82.9869 9.68126C80.3377 8 76.6998 8 69.424 8H64V30.6667C64 31.403 64.597 32 65.3333 32H88Z" fill="#1976D2"/>
<path fill-rule="evenodd" clip-rule="evenodd" d="M48.9996 36.8C48.9996 35.8059 49.8055 35 50.7996 35C51.7937 35 52.5996 35.8059 52.5996 36.8V45.8C52.5996 46.7941 51.7937 47.6 50.7996 47.6C49.8055 47.6 48.9996 46.7941 48.9996 45.8V38H48.6996C48.3682 38 48.0996 37.7314 48.0996 37.4C48.0996 37.0686 48.3682 36.8 48.6996 36.8H48.9996ZM50.7996 36.2C50.4682 36.2 50.1996 36.4686 50.1996 36.8V45.8C50.1996 46.1314 50.4682 46.4 50.7996 46.4C51.131 46.4 51.3996 46.1314 51.3996 45.8V36.8C51.3996 36.4686 51.131 36.2 50.7996 36.2Z" fill="white"/>
<path fill-rule="evenodd" clip-rule="evenodd" d="M53.1992 36.8C53.1992 35.8059 54.0051 35 54.9992 35C55.9933 35 56.7992 35.8059 56.7992 36.8V45.8C56.7992 46.7941 55.9933 47.6 54.9992 47.6C54.0051 47.6 53.1992 46.7941 53.1992 45.8V36.8ZM54.9992 36.2C54.6678 36.2 54.3992 36.4686 54.3992 36.8V45.8C54.3992 46.1314 54.6678 46.4 54.9992 46.4C55.3306 46.4 55.5992 46.1314 55.5992 45.8V36.8C55.5992 36.4686 55.3306 36.2 54.9992 36.2Z" fill="white"/>
<path fill-rule="evenodd" clip-rule="evenodd" d="M57.4004 36.8C57.4004 35.8059 58.2063 35 59.2004 35C60.1945 35 61.0004 35.8059 61.0004 36.8V44.6H61.3004C61.6318 44.6 61.9004 44.8686 61.9004 45.2C61.9004 45.5314 61.6318 45.8 61.3004 45.8H61.0004C61.0004 46.7941 60.1945 47.6 59.2004 47.6C58.2063 47.6 57.4004 46.7941 57.4004 45.8V36.8ZM59.2004 36.2C58.869 36.2 58.6004 36.4686 58.6004 36.8V45.8C58.6004 46.1314 58.869 46.4 59.2004 46.4C59.5318 46.4 59.8004 46.1314 59.8004 45.8V36.8C59.8004 36.4686 59.5318 36.2 59.2004 36.2Z" fill="white"/>
<path d="M58.0004 24.2001C58.0004 23.8687 57.7318 23.6001 57.4004 23.6001C57.069 23.6001 56.8004 23.8687 56.8004 24.2001C56.8004 25.1942 55.9945 26.0001 55.0004 26.0001C54.669 26.0001 54.4004 26.2687 54.4004 26.6001C54.4004 26.9314 54.669 27.2001 55.0004 27.2001C56.6573 27.2001 58.0004 25.8569 58.0004 24.2001Z" fill="white"/>
<path fill-rule="evenodd" clip-rule="evenodd" d="M54.9996 15.1997C54.8943 15.1997 54.8132 15.2268 54.7777 15.2399C54.7349 15.2556 54.6999 15.2733 54.6761 15.2863C54.6283 15.3124 54.5852 15.342 54.5514 15.3665C54.4819 15.4171 54.4038 15.4821 54.3227 15.5542C54.158 15.7006 53.9473 15.906 53.7085 16.1577C53.23 16.662 52.6204 17.3715 52.019 18.2044C50.837 19.8416 49.5996 22.074 49.5996 24.1998C49.5996 27.1821 52.0173 29.5998 54.9996 29.5998C57.9819 29.5998 60.3996 27.1821 60.3996 24.1998C60.3996 22.074 59.1622 19.8416 57.9802 18.2044C57.3788 17.3715 56.7693 16.662 56.2907 16.1577C56.0519 15.906 55.8412 15.7006 55.6765 15.5542C55.5954 15.4821 55.5173 15.4171 55.4478 15.3665C55.414 15.342 55.3709 15.3124 55.3232 15.2863C55.2993 15.2733 55.2643 15.2556 55.2216 15.2399C55.186 15.2268 55.1049 15.1997 54.9996 15.1997ZM50.7996 24.1998C50.7996 22.4746 51.8367 20.5069 52.992 18.9069C53.5592 18.1211 54.134 17.4526 54.579 16.9837C54.7409 16.813 54.8832 16.6713 54.9996 16.5616C55.116 16.6713 55.2583 16.813 55.4202 16.9837C55.8652 17.4526 56.44 18.1211 57.0073 18.9069C58.1625 20.5069 59.1996 22.4746 59.1996 24.1998C59.1996 26.5193 57.3192 28.3998 54.9996 28.3998C52.68 28.3998 50.7996 26.5193 50.7996 24.1998Z" fill="white"/>
<path d="M72.327 38.527C73.0299 37.8241 74.1696 37.8241 74.8726 38.527C75.1069 38.7613 75.4868 38.7613 75.7211 38.527C75.9554 38.2927 75.9554 37.9128 75.7211 37.6785C74.5495 36.5069 72.65 36.5069 71.4785 37.6785C71.2441 37.9128 71.2441 38.2927 71.4785 38.527C71.7128 38.7613 72.0927 38.7613 72.327 38.527Z" fill="white"/>
<path fill-rule="evenodd" clip-rule="evenodd" d="M76.3012 46.3999C76.3012 47.6232 75.322 48.5315 74.1469 48.7496C74.0522 48.9563 73.8435 49.0999 73.6012 49.0999C73.3589 49.0999 73.1502 48.9563 73.0555 48.7496C71.8804 48.5315 70.9012 47.6232 70.9012 46.3999V44.8675C70.9012 44.6526 70.7711 44.4106 70.5116 44.2292C69.1161 43.2542 68.2012 41.6339 68.2012 39.7999C68.2012 36.8176 70.6189 34.3999 73.6012 34.3999C76.5835 34.3999 79.0012 36.8176 79.0012 39.7999C79.0012 41.6339 78.0863 43.2542 76.6908 44.2292C76.4313 44.4105 76.3012 44.6526 76.3012 44.8675V46.3999ZM73.6012 35.5999C71.2816 35.5999 69.4012 37.4803 69.4012 39.7999C69.4012 41.2255 70.1109 42.4853 71.1989 43.2455C71.4683 43.4338 71.7128 43.6908 71.8791 43.9999H75.3233C75.4896 43.6908 75.7341 43.4338 76.0035 43.2455C77.0915 42.4853 77.8012 41.2255 77.8012 39.7999C77.8012 37.4803 75.9208 35.5999 73.6012 35.5999ZM72.1012 45.1999V45.7999H75.1012V45.1999H72.1012ZM73.6012 47.5999C73.007 47.5999 72.5539 47.3402 72.3079 46.9999H74.8945C74.6485 47.3402 74.1954 47.5999 73.6012 47.5999Z" fill="white"/>
<path fill-rule="evenodd" clip-rule="evenodd" d="M73.5996 16.3999C73.931 16.3999 74.1996 16.6685 74.1996 16.9999V21.7999H78.9996C79.331 21.7999 79.5996 22.0685 79.5996 22.3999C79.5996 22.7313 79.331 22.9999 78.9996 22.9999H74.1996V27.7999C74.1996 28.1313 73.931 28.3999 73.5996 28.3999C73.2682 28.3999 72.9996 28.1313 72.9996 27.7999V22.9999H68.1996C67.8682 22.9999 67.5996 22.7313 67.5996 22.3999C67.5996 22.0685 67.8682 21.7999 68.1996 21.7999H72.9996V16.9999C72.9996 16.6685 73.2682 16.3999 73.5996 16.3999Z" fill="white"/>
</g>
</g>
<defs>
<clipPath id="clip0_6115_323">
<rect width="48" height="48" fill="white" transform="translate(40 8)"/>
</clipPath>
</defs>
</svg>
