<svg width="128" height="64" viewBox="0 0 128 64" fill="none" xmlns="http://www.w3.org/2000/svg">
<rect width="128" height="64" fill="white"/>
<path d="M44.7896 18.5846C44.7896 23.663 41.0273 27.1669 35.8948 27.1669C30.7601 27.1669 27 23.663 27 18.5846C27 13.5061 30.7623 10.0023 35.8948 10.0023C41.0296 10.0023 44.7896 13.5061 44.7896 18.5846ZM79.4554 18.5846C79.4554 23.663 75.6931 27.1669 70.5606 27.1669C65.4281 27.1669 61.6658 23.663 61.6658 18.5846C61.6658 13.5061 65.4281 10.0023 70.5606 10.0023C75.6931 10.0023 79.4554 13.5061 79.4554 18.5846ZM97.5525 16.705V26.6089H93.2317V17.6199C93.2317 15.031 92.0108 13.9624 89.9284 13.9624C87.742 13.9624 86.1661 15.1801 86.1661 18.6862V26.6089H81.8453V10.5083H86.1163V12.9459H86.2181C87.2853 11.1183 89.1167 10 91.4546 10C94.9591 10.0023 97.5525 11.9315 97.5525 16.705ZM46.3655 10.5083V14.1657H54.8534L46.162 23.1547V26.6089H60.5986V22.9514H51.5003L60.1916 13.9105V10.5083H46.3655ZM31.5243 18.5846C31.5243 21.3768 33.2517 23.2067 35.8948 23.2067C38.5379 23.2067 40.2653 21.3791 40.2653 18.5846C40.2653 15.79 38.5379 13.9624 35.8948 13.9624C33.2517 13.9624 31.5243 15.79 31.5243 18.5846ZM66.1901 18.5846C66.1901 21.3768 67.9175 23.2067 70.5606 23.2067C73.2037 23.2067 74.9311 21.3791 74.9311 18.5846C74.9311 15.79 73.2037 13.9624 70.5606 13.9624C67.9175 13.9624 66.1901 15.79 66.1901 18.5846Z" fill="#005BFF"/>
<path d="M82.5227 56.4787V40.3781H78.2017V46.2178H71.2877V40.3781H66.9667V56.4787H71.2877V49.977H78.2017V56.4787H82.5227Z" fill="#005BFF"/>
<path d="M90.5047 48.7593L96.3487 56.4787V56.4764H101.839L94.6217 47.6908L101.231 40.3781H95.8927L90.5047 47.0311V40.3781H86.1837V56.4787H90.5047V48.7593Z" fill="#005BFF"/>
<path fill-rule="evenodd" clip-rule="evenodd" d="M36.1157 40.2267C33.4726 40.2267 31.44 41.4466 30.3728 43.3759H30.271C30.4225 39.8201 31.6435 38.2974 35.8105 37.8908L42.2657 37.2808V33.167L35.0983 33.725C28.0846 34.283 26 39.0587 26 46.6764C26 53.4312 29.9138 57.0367 34.9965 57.0367C40.0295 57.0367 43.8913 53.4312 43.8913 48.4024C43.8913 43.3759 40.3845 40.2267 36.1157 40.2267ZM30.522 48.4544C30.522 51.2466 32.4552 53.1262 34.9445 53.1262C37.4362 53.1262 39.3671 51.2466 39.3671 48.4544C39.3671 45.6101 37.4362 43.9339 34.9445 43.9339C32.4529 43.9339 30.522 45.6101 30.522 48.4544Z" fill="#005BFF"/>
<path fill-rule="evenodd" clip-rule="evenodd" d="M58.9877 40.3781V42.714H58.8867C58.1247 41.0897 56.0897 39.8698 53.4987 39.8698C49.2797 39.8698 45.8222 42.9173 45.8222 48.4024C45.8222 53.9395 49.1777 57.0367 53.4987 57.0367C56.1417 57.0367 58.0227 55.8168 58.8867 54.2941H58.9877V56.4787H63.3087V40.3781H58.9877ZM50.3487 48.5041C50.3487 51.1969 52.0237 53.1262 54.6177 53.1262C57.2087 53.1262 58.9877 51.1449 58.9877 48.4521C58.9877 45.7095 57.2087 43.7803 54.6177 43.7803C52.0267 43.7803 50.3487 45.7615 50.3487 48.5041Z" fill="#005BFF"/>
</svg>
