<svg width="406" height="405" viewBox="0 0 406 405" fill="none" xmlns="http://www.w3.org/2000/svg">
<rect x="0.5" width="405" height="405" rx="202.5" fill="#FFE600"/>
<path d="M252.372 186.536V155.144L263.713 143.803V171.005L273.574 180.866L313.267 141.174L323.046 150.953C322.964 143.557 321.485 122.108 303.323 104.276C283.765 85.3744 262.563 93.921 255.331 101.153L215.721 140.763L225.829 150.871L205.366 171.498L184.904 151.035L195.012 140.927L155.402 101.317C148.17 94.0854 126.968 85.5388 107.409 104.44C89.2477 122.273 87.7685 143.721 87.6863 151.117L97.4655 141.338L137.158 181.03L147.019 171.169V143.968L158.36 155.308V186.701L174.303 202.561L95.7398 281.124L126.803 312.105L205.366 233.625L283.929 312.188L314.993 281.206L236.43 202.561L252.372 186.536Z" fill="#2B2D34"/>
</svg>
