<svg width="405" height="405" viewBox="0 0 405 405" fill="none" xmlns="http://www.w3.org/2000/svg">
<circle cx="202.5" cy="202.5" r="202.5" fill="#21A038"/>
<path d="M311.753 122.762C318.081 131.054 323.438 140.062 327.716 149.605L206.37 240.259L155.657 208.041V169.282L206.37 201.5L311.753 122.762Z" fill="#EDEEF4"/>
<path d="M103.901 205.311C103.901 203.572 103.942 201.844 104.026 200.126L73.2924 198.6C73.1878 200.826 73.125 203.074 73.125 205.342C73.112 223.067 76.552 240.619 83.2478 256.992C89.9435 273.366 99.7633 288.238 112.144 300.756L133.944 278.674C124.414 269.054 116.854 257.621 111.698 245.031C106.542 232.441 103.892 218.942 103.901 205.311Z" fill="url(#paint0_linear_5343_438)"/>
<path d="M103.901 205.311C103.901 203.572 103.942 201.844 104.026 200.126L73.2924 198.6C73.1878 200.826 73.125 203.074 73.125 205.342C73.112 223.067 76.552 240.619 83.2478 256.992C89.9435 273.366 99.7633 288.238 112.144 300.756L133.944 278.674C124.414 269.054 116.854 257.621 111.698 245.031C106.542 232.441 103.892 218.942 103.901 205.311Z" fill="#EDEEF4"/>
<path d="M206.344 101.5C208.059 101.5 209.764 101.564 211.459 101.649L212.997 70.4907C210.793 70.3846 208.575 70.3316 206.344 70.3316C188.847 70.31 171.519 73.7913 155.353 80.5755C139.188 87.3598 124.504 97.3134 112.145 109.865L133.945 131.958C143.437 122.297 154.719 114.632 167.144 109.405C179.569 104.178 192.891 101.492 206.344 101.5Z" fill="#EDEEF4"/>
<path d="M206.341 309.13C204.626 309.13 202.92 309.13 201.216 308.993L199.678 340.14C201.889 340.253 204.11 340.31 206.341 340.31C223.831 340.328 241.151 336.845 257.308 330.058C273.465 323.272 288.139 313.317 300.489 300.766L278.73 278.683C269.237 288.339 257.955 296 245.533 301.225C233.11 306.45 219.791 309.137 206.341 309.13Z" fill="url(#paint1_linear_5343_438)"/>
<path d="M206.341 309.13C204.626 309.13 202.92 309.13 201.216 308.993L199.678 340.14C201.889 340.253 204.11 340.31 206.341 340.31C223.831 340.328 241.151 336.845 257.308 330.058C273.465 323.272 288.139 313.317 300.489 300.766L278.73 278.683C269.237 288.339 257.955 296 245.533 301.225C233.11 306.45 219.791 309.137 206.341 309.13Z" fill="#EDEEF4"/>
<path d="M264.09 119.61L289.991 100.262C266.317 80.8343 236.766 70.2586 206.304 70.3127V101.492C226.932 101.466 247.08 107.784 264.09 119.61Z" fill="#EDEEF4"/>
<path d="M339.552 205.316C339.569 197.205 338.869 189.108 337.46 181.123L308.787 202.538C308.787 203.461 308.787 204.383 308.787 205.316C308.794 219.822 305.794 234.167 299.981 247.423C294.167 260.678 285.67 272.548 275.04 282.262L295.722 305.427C309.541 292.783 320.584 277.338 328.134 260.092C335.686 242.846 339.575 224.183 339.552 205.316Z" fill="#EDEEF4"/>
<path d="M206.343 309.134C192.029 309.139 177.873 306.097 164.792 300.206C151.711 294.314 139.997 285.704 130.409 274.933L107.562 295.882C120.036 309.889 135.276 321.082 152.293 328.737C169.311 336.391 187.725 340.335 206.343 340.312V309.134Z" fill="url(#paint2_linear_5343_438)"/>
<path d="M206.343 309.134C192.029 309.139 177.873 306.097 164.792 300.206C151.711 294.314 139.997 285.704 130.409 274.933L107.562 295.882C120.036 309.889 135.276 321.082 152.293 328.737C169.311 336.391 187.725 340.335 206.343 340.312V309.134Z" fill="#EDEEF4"/>
<path d="M137.647 128.364L116.977 105.199C103.153 117.84 92.1064 133.285 84.5519 150.531C76.9975 167.777 73.1044 186.44 73.1251 205.31H103.901C103.894 190.805 106.895 176.459 112.708 163.203C118.522 149.949 127.018 138.079 137.647 128.364Z" fill="url(#paint3_linear_5343_438)"/>
<path d="M137.647 128.364L116.977 105.199C103.153 117.84 92.1064 133.285 84.5519 150.531C76.9975 167.777 73.1044 186.44 73.1251 205.31H103.901C103.894 190.805 106.895 176.459 112.708 163.203C118.522 149.949 127.018 138.079 137.647 128.364Z" fill="#EDEEF4"/>
<defs>
<linearGradient id="paint0_linear_5343_438" x1="118.368" y1="296.866" x2="83.9356" y2="198.651" gradientUnits="userSpaceOnUse">
<stop offset="0.14" stop-color="#F1E813"/>
<stop offset="0.3" stop-color="#E6E418"/>
<stop offset="0.58" stop-color="#C9DA26"/>
<stop offset="0.89" stop-color="#A2CC39"/>
</linearGradient>
<linearGradient id="paint1_linear_5343_438" x1="274.671" y1="337.963" x2="266.318" y2="272.498" gradientUnits="userSpaceOnUse">
<stop offset="0.14" stop-color="#F1E813"/>
<stop offset="0.3" stop-color="#E6E418"/>
<stop offset="0.58" stop-color="#C9DA26"/>
<stop offset="0.89" stop-color="#A2CC39"/>
</linearGradient>
<linearGradient id="paint2_linear_5343_438" x1="181.045" y1="337.823" x2="171.477" y2="268.562" gradientUnits="userSpaceOnUse">
<stop offset="0.14" stop-color="#F1E813"/>
<stop offset="0.3" stop-color="#E6E418"/>
<stop offset="0.58" stop-color="#C9DA26"/>
<stop offset="0.89" stop-color="#A2CC39"/>
</linearGradient>
<linearGradient id="paint3_linear_5343_438" x1="121.123" y1="201.497" x2="89.445" y2="103.679" gradientUnits="userSpaceOnUse">
<stop offset="0.14" stop-color="#F1E813"/>
<stop offset="0.3" stop-color="#E6E418"/>
<stop offset="0.58" stop-color="#C9DA26"/>
<stop offset="0.89" stop-color="#A2CC39"/>
</linearGradient>
</defs>
</svg>
