<svg width="405" height="405" viewBox="0 0 405 405" fill="none" xmlns="http://www.w3.org/2000/svg">
<circle cx="202.5" cy="202.5" r="202.5" fill="#491678"/>
<g clip-path="url(#clip0_5343_418)">
<path d="M329.164 210.165C329.164 167.027 305.668 129.1 270.369 107.495L270.843 136.787C291.825 154.822 305.121 181.054 305.121 210.165C305.121 223.463 302.28 236.142 297.289 247.728C282.099 233.299 271.279 216.322 264.54 196.283C256.416 172.018 254.522 145.459 254.231 112.996L254.267 99.0421C246.981 95.9089 239.368 93.4313 231.573 91.6826L231.609 112.96C232.374 225.029 251.791 271.228 280.678 305.948C310.221 283.651 329.164 249.039 329.164 210.165C329.164 210.201 329.164 210.201 329.164 210.165Z" fill="#EDEEF4"/>
<path d="M173.529 112.982L173.566 91.7051C165.77 93.4539 158.156 95.9313 150.871 99.0647L150.907 113.019C150.579 145.445 148.721 172.041 140.598 196.306C133.895 216.344 123.039 233.285 107.849 247.75C102.858 236.164 100.017 223.485 100.017 210.187C100.017 181.04 113.277 154.844 134.296 136.81L134.769 107.517C99.4338 129.086 75.9375 167.014 75.9375 210.151V210.187C75.9375 249.061 94.9167 283.673 124.424 305.971C153.384 271.286 172.764 225.052 173.529 112.982Z" fill="#EDEEF4"/>
<path d="M213.918 70.083C209.802 69.7551 206.087 69.6094 202.589 69.6094C199.092 69.6094 195.376 69.7551 191.224 70.083V95.2585C191.224 205.58 186.961 253.525 170.459 327.996C191.369 333.279 213.591 333.279 234.537 328.032C218.144 254.109 213.918 206.162 213.918 95.2585V70.083Z" fill="#EDEEF4"/>
</g>
<defs>
<clipPath id="clip0_5343_418">
<rect width="254.226" height="265.781" fill="white" transform="translate(75.9375 69.6094)"/>
</clipPath>
</defs>
</svg>
