<svg width="405" height="405" viewBox="0 0 405 405" fill="none" xmlns="http://www.w3.org/2000/svg">
<circle cx="202.5" cy="202.5" r="202.5" fill="#0A1244"/>
<path d="M137.308 327.9H265.274V201.071C238.567 251.599 188.608 284.445 137.308 297.046C137.471 306.599 137.308 327.9 137.308 327.9Z" fill="#14CDD3"/>
<path d="M178.204 264.12C208.103 248.293 232.919 224.337 249.789 195.014C249.789 195.014 249.789 180.381 249.789 180.055C222.966 171.183 198.514 156.323 178.285 136.6C178.285 171.356 178.285 264.12 178.285 264.12" fill="#14CDD3"/>
<path d="M185.112 72.4553V120.829C194.902 130.539 205.71 139.166 217.347 146.56V94.6096C205.786 88.4988 194.992 81.0345 185.194 72.374" fill="#14CDD3"/>
</svg>
